<?xml version="1.0" encoding="utf-8"?>
<!-- Generator: Adobe Illustrator 24.3.0, SVG Export Plug-In . SVG Version: 6.00 Build 0)  -->
<svg version="1.1" id="Ebene_1" xmlns="http://www.w3.org/2000/svg" xmlns:xlink="http://www.w3.org/1999/xlink" x="0px" y="0px"
	 width="897px" height="793px" viewBox="0 0 897 793" style="enable-background:new 0 0 897 793;" xml:space="preserve">
<style type="text/css">
	.st0{fill:#F48A42;}
	.st1{fill:#FFFFFF;}
</style>
<g>
	<path class="st0" d="M579.6,239.1c-1.9-2.3-6.3-1.9-5.1-5.9c-3.9-1.7-8.5-6.9-12.8-3.9c-17.9-4.2-18.7,22.1-13.7,33.1
		c3.3-1,4.8,8.8,4.8,11.8c0.6-0.6,0.5-2,1-3.2c3.9,3.1-0.3,10.1,3.3,13.8c1,2-0.9,3.7,0.3,5.9c0,4.8-5.3,9.5-3.8,13.7
		c-1.9,4.7-3.3,10.5-8.4,13.3c0.4-2.6,4.9-7.8,1.6-9.1c-5.4,11.4,4.9-17.5-0.1-21.6c-1,4.1-1.3,24.3-4.7,13.1
		c-3.3,10.6-8.6,24.3-19.9,30.2c0.2-0.6,0.6-1.1,0.6-1.7c-3.6,3.4-9,5.1-11.1,9.7c3.8-1.2,1.1,5.2-1.7,2.9c-7.9,4.3-16.4,6.9-24,6.8
		c0.3-0.6,0.5-1.1,0.7-1.4c-5.8-0.6-14.6,2.8-18.2,0.4c-4.1,1.5-7.8-1.5-12.5-0.7c6.1,2.9,5.9,2.8-1.3,2.3c1.4,1.1,1.4,1.2,0.2,2.3
		c9.8,3,20.4,0.3,29.6,3c-2.7,1.7-8.1-2.2-7.9,1.4c-19-1.6-39.8-4.3-53.8-18.8c1.2-1.2,2.7,1.4,4,1.2c-0.4-0.4-0.8-0.9-1.2-1.3
		c0.3-0.2,0.6-0.4,0.9-0.5c-1.4-0.8-2.4-1.8-2.5-3.5c4.1,0.5,7.1,7,11,6.4c-1.6-1.7-4.9-2.9-4.7-5.4c1.3,0.7,1.8,0.1,3.1-0.6
		c-3.4-4.4-9.2-5.8-11.3-10.9c7.5,4.1,18.3,10.7,27.3,15.1c-0.3,0.4-0.5,0.6-0.7,0.7c1.2,0.5,2.3,1,3.4,1.4
		c-89.3-38.3-30.5-167.7,59-138c0-0.4,0.1-0.8,0.1-1.3c6.1,1.1,11.6,3.7,17.5,6.2c-22.7-14.4-16.9-10.6,3.8-3.4
		c-7-5.1-16.6-6.7-22.9-11.9c8.4,1.5,16,4.9,23.4,8.9c-4.2-8.1-14.4-9.1-21-13.4c10.3-0.2,21,9.6,30.3,10c-0.8-2.2-10.4-5-8.4-7.7
		c-3.9-3.4-9.8-4.3-13.2-7.9c1.5-0.3,2.9,0.4,4.4,0.6c-5-2.7-10.7-3.7-15.6-6.4c0.8-1.1,1.6-0.3,2.9-0.1c-8.4-4.5-17.7-4-26.7-6.1
		c8.6-1.2,17.5,1.2,26,2.8c-0.3-0.5-0.4-0.8-0.6-1.2c11.6,0.9,21.9,8.3,32.4,12.5c-6.2-5.6-15.5-6.9-19.7-13.1
		c10.2,2.9,17.7,10.2,26.4,15.7c-57.8-61-173.4-3.5-171.5,76.6c0.3-0.2,0.7-0.5,1.1-0.7c3.1,6.1,2.1,14.3,4.2,21.2
		c-0.4-14.4,0.5-29.5,8.3-41.9c-7,33.3-2.3,73.4,24,98.8c1.5-2.4,3.1,2.3,3.3-0.8c44.5,40.6,104.7,16,78.6,26.9
		c31.3-4.6,14.4-0.2-4.9,6.3c4.4,0.5,4.4,0.5,4.8,1.2c-0.4,0.2-0.7,0.3-1.3,0.6c11.1,0.8-5.6,4.3-6.3,5.6c3.4-0.5,8.4-3,11.2-1
		c-1.1,0.3-2.3,0.6-3.4,0.8c27.1-4.3,48.8-18.2,66.3-40.3c-3.3,10-15.2,17.2-21,24.5C579.1,337.9,596.9,279.3,579.6,239.1z"/>
	<path class="st0" d="M497.4,339.8c-15.1,4.4-28.7,2.5-44.2-0.2C467.2,345.6,483.6,346.5,497.4,339.8z"/>
	<path class="st0" d="M494.6,200.5c-4.3-3.4-16.1-0.2-22.1,1C479.8,200.2,487.2,200,494.6,200.5z"/>
	<path class="st0" d="M472.5,201.6c-0.1,0-0.2,0-0.2,0C472.4,201.7,472.5,201.6,472.5,201.6z"/>
	<path class="st0" d="M473.4,370.1c0.7,0,1.3,0.1,2.2,0.1c-0.4,0.6-0.6,1.1-0.9,1.5c1.4,0,2.7,0,3.9,0c-0.4-1.3-0.4-1.6,1.1-1.9
		C475.1,369.1,474.6,369.1,473.4,370.1z"/>
	<path class="st0" d="M399.7,330.3c-2.6-3-4.6-6.2-7.1-9.2c-3.6,4.9,6.2,11.6,10.2,13.9C401.9,333.4,400,331.8,399.7,330.3z"/>
	<path class="st0" d="M525.8,325.8c2.2-1.4,2.6-2.8,3.5-4.7C528.2,321.7,526.4,324.5,525.8,325.8z"/>
	<path class="st0" d="M433.4,224.8c0.8-0.9,1.4-1.7,2.1-2.5C433.2,222.1,433.2,222.1,433.4,224.8z"/>
	<path class="st0" d="M472.3,201.6c-2.1,0.1-4.4,0.8-6.4,1.7C468,203.5,470.2,202.1,472.3,201.6z"/>
	<path class="st0" d="M384.2,286.7c0-1.3,0-2.6,0-4C383.5,284.1,383.3,285.4,384.2,286.7z"/>
	<path class="st0" d="M408.3,338.1c1.1,0.6,2.3,2.7,3.4,2.5c-1-1-2.1-1.9-3.1-2.9C408.5,337.9,408.4,338,408.3,338.1z"/>
	<path class="st0" d="M494,379.5c0.1,0.7,3.6,0,3.6-0.6C496.4,379.1,495.2,379.3,494,379.5z"/>
	<path class="st0" d="M404,341.4c0.9,0.6,1.8,2.5,2.7,2.4C405.8,343.2,404.9,341,404,341.4z"/>
	<path class="st0" d="M464.6,376.3c-5.2-3.6-14.9-2.8-21.5-5.7C449.6,374.8,457.3,373.8,464.6,376.3z"/>
</g>
<g>
	<polygon class="st1" points="158.6,288.7 247,288.7 247,257.3 158.6,257.3 158.6,209.8 247,209.8 247,176.8 121.6,176.8 
		121.6,369.2 158.6,369.2 	"/>
	<polygon class="st1" points="381.8,336.3 303.9,336.3 303.9,176.8 267,176.8 267,369.2 381.8,369.2 	"/>
	<polygon class="st1" points="683.4,281.3 699,369.2 742.8,369.2 777.1,176.8 739.3,176.8 721.1,305.4 701.6,176.8 665.1,176.8 
		645.6,305.4 627.4,176.8 589.6,176.8 623.9,369.2 667.7,369.2 	"/>
	<polygon class="st1" points="482.9,591.2 609.6,591.2 609.6,558.2 519.9,558.2 519.9,510.7 609.6,510.7 609.6,479.3 519.9,479.3 
		519.9,431.7 609.6,431.7 609.6,398.8 482.9,398.8 	"/>
	<polygon class="st1" points="731.4,506.6 670.9,398.8 634,398.8 634,591.2 670.9,591.2 670.9,480.1 731.4,591.2 766.1,591.2 
		766.1,398.8 731.4,398.8 	"/>
	<path class="st1" d="M209.3,533.3c8.4-6.5,15.8-12.6,22.2-18.1s11.6-11.1,15.7-16.6c4.1-5.5,7.2-11.5,9.3-17.7
		c2.1-6.3,3.1-13.4,3.1-21.4V459c0-8.9-1.6-17-4.8-24.3s-7.7-13.5-13.4-18.6s-12.7-9-20.8-11.9c-8.1-2.8-17.1-4.2-26.9-4.2
		c-8.6,0-16.2,0.9-23,2.6c-6.7,1.7-12.9,4.3-18.5,7.7c-5.6,3.4-10.8,7.6-15.6,12.5s-9.6,10.6-14.4,17l29.5,23.7
		c7.1-8.7,13.5-15.2,19.3-19.4c5.7-4.2,12.3-6.3,19.8-6.3c7.7,0,13.9,2.1,18.6,6.3c4.7,4.2,7.1,10.3,7.1,18.5c0,4-0.6,7.7-1.8,11
		c-1.2,3.4-3.1,6.8-5.7,10.3c-2.6,3.5-6.1,7.3-10.3,11.2c-4.2,3.9-9.3,8.3-15.3,13.2l-63.7,52v33.2h141.7v-36.3H178L209.3,533.3z"/>
	<polygon class="st1" points="366.6,591.2 456.9,591.2 456.9,558.2 388.5,558.2 	"/>
	<polygon class="st1" points="324.8,431.7 411.8,431.7 324.8,558.2 324.8,591.2 349.9,591.2 371.6,558.2 456.9,431.7 456.9,398.8 
		324.8,398.8 	"/>
</g>
</svg>
